<svg xmlns="http://www.w3.org/2000/svg"
	xmlns:xlink="http://www.w3.org/1999/xlink" xmlns:lucid="lucid" width="1600"
	height="1211">
	<g transform="translate(-81.25 -49)" lucid:page-tab-id="0_0">
		<!-- User Logo pointing to DNS Resolution Logo -->
		<path
			d="M122.63 641.3h-19.75c-.9 0-1.63-.72-1.63-1.6v-2.43c0-9.04 5.94-16.6 14.75-18.74.4-.1.8-.04 1.16.16 2.6 1.38 5.4 1.38 8 0 .38-.2.75-.26 1.16-.17 2.3.57 4.22 1.4 6.2 2.72l-1.82 2.7c-1.47-.97-2.85-1.6-4.57-2.06-3.28 1.5-6.66 1.5-9.94 0-7.04 1.95-11.7 8.1-11.7 15.37v.8h18.13z"
			stroke="#fff" stroke-opacity="0" fill="#666"/>
		<path
			d="M121.14 622.9c-5.88 0-10.64-4.75-10.64-10.6 0-5.88 4.76-10.63 10.64-10.63 5.87-.07 10.66 4.65 10.72 10.5.05 4.05-2 7.5-5.57 9.42-1.66.9-3.26 1.3-5.16 1.3zm0-18c-4.1 0-7.46 3.3-7.48 7.4 0 2.77 1.4 5.15 3.87 6.46 2.33 1.26 4.9 1.26 7.22 0 2.48-1.33 3.9-3.76 3.87-6.58-.05-4.06-3.4-7.3-7.48-7.26zM175.86 641.3H156.1v-3.23h18.14v-.8c0-7.3-4.67-13.43-11.7-15.4-3.28 1.54-6.66 1.54-9.95 0-1.73.5-3.14 1.15-4.62 2.17l-1.84-2.66c1.97-1.37 3.88-2.24 6.2-2.83.4-.1.8-.05 1.2.16 2.56 1.4 5.4 1.4 8 0 .38-.2.76-.24 1.17-.15 8.8 2.12 14.76 9.7 14.76 18.72v2.42c0 .88-.72 1.6-1.6 1.6z"
			stroke="#fff" stroke-opacity="0" fill="#666"/>
		<path
			d="M157.53 622.9c-5.9 0-10.7-4.8-10.7-10.72 0-5.9 4.83-10.67 10.75-10.67s10.7 4.82 10.7 10.73c0 4.02-2.04 7.44-5.58 9.37-1.67.9-3.28 1.3-5.17 1.3zm0-18c-4.1 0-7.44 3.28-7.46 7.4-.02 2.77 1.4 5.15 3.86 6.45 2.32 1.27 4.9 1.27 7.23 0 2.5-1.32 3.95-3.76 3.9-6.6-.08-4.07-3.45-7.33-7.53-7.24zM165.26 677.72H113.4c-.9 0-1.6-.72-1.6-1.62v-3.44c-.06-12.46 8.2-22.94 20.3-25.88.45-.13.84-.07 1.22.12 3.86 2.08 8.1 2.08 12 0 .34-.2.72-.25 1.16-.12 12.17 2.9 20.43 13.4 20.37 25.88v3.44c0 .9-.7 1.62-1.6 1.62zm-50.22-3.23h48.56v-1.84c0-10.72-6.93-19.75-17.34-22.54-4.57 2.2-9.36 2.2-13.93 0-10.4 2.8-17.3 11.82-17.3 22.54z"
			stroke="#fff" stroke-opacity="0" fill="#666"/>
		<path
			d="M139.38 651.65c-2.57 0-4.76-.55-7.04-1.77-7.07-3.88-9.67-12.7-5.8-19.8 3.87-7.04 12.72-9.63 19.82-5.8 7.06 3.9 9.66 12.72 5.8 19.8-1.4 2.56-3.23 4.4-5.8 5.8-2.25 1.22-4.44 1.77-6.98 1.77zm0-25.5c-4.24-.05-7.9 2.08-9.93 5.8-2.92 5.4-.94 12.16 4.47 15.1 3.5 1.87 7.36 1.87 10.86 0 3.77-2.04 5.93-5.68 5.87-9.93-.1-6.12-5.14-11.05-11.27-10.96z"
			stroke="#fff" stroke-opacity="0" fill="#666"/>
		<path
			d="M176.3 641.3h-37.84c-.65 0-1.17-.5-1.17-1.17v-2.5c-.05-9.1 5.98-16.74 14.8-18.9.34-.08.62-.04.9.1 2.8 1.5 5.9 1.5 8.76 0 .24-.14.52-.18.84-.1 8.88 2.13 14.9 9.78 14.86 18.9v2.5c0 .66-.52 1.18-1.16 1.18zm-36.64-2.34h35.43v-1.34c0-7.82-5.07-14.4-12.66-16.44-3.34 1.6-6.83 1.6-10.16 0-7.6 2.04-12.62 8.62-12.62 16.44z"
			stroke="#fff" stroke-opacity="0" stroke-width=".73" fill="#fff"
			fill-opacity="0"/>
		<path
			d="M140.25 641.3H102.4c-.63 0-1.15-.5-1.15-1.17v-2.5c-.04-9.1 6-16.74 14.82-18.9.32-.08.6-.04.9.1 2.8 1.5 5.9 1.5 8.74 0 .25-.14.54-.18.86-.1 8.87 2.13 14.9 9.78 14.86 18.9v2.5c0 .66-.52 1.18-1.17 1.18zm-36.63-2.34h35.43v-1.34c0-7.82-5.06-14.4-12.65-16.44-3.34 1.6-6.83 1.6-10.17 0-7.6 2.04-12.6 8.62-12.6 16.44z"
			stroke="#fff" stroke-opacity="0" stroke-width=".73" fill="#fff"
			fill-opacity="0"/>

		<!-- Arrow from DNS Resolution to Internet Gateway -->
		<path d="M274.05 745.26h57.16" stroke="#666" fill="none"/>
		<path d="M274.06 745.76h-.5v-1h.5z" stroke="#666" stroke-width=".05"
			fill="#666"/>
		<path d="M345.97 745.26l-14.26 4.63v-9.28z" stroke="#666" fill="#666"/>
		<path d="M341.25 441.5h1300v240h-1300z" fill="#fff" fill-opacity="0"/>

		<!-- Dotten rectangle in Availability Zone A -->
		<path
			d="M353.3 441.5h8m8.04 0h8.02m8.03 0h8m8.04 0h8.02m8.02 0h8.03m8.03 0h8.03m8.02 0h8.03m8.03 0h8.03m8.02 0h8.03m8.03 0h8.03m8.02 0h8.03m8.03 0h8.02m8.03 0h8.02m8.03 0h8.02m8.03 0H586m8.03 0h8.02m8.03 0h8.02m8.03 0h8.02m8.03 0h8.02m8.03 0h8.02m8.02 0h8.03m8.02 0h8.03m8.02 0h8.03m8.02 0h8.03m8.02 0h8.03m8.02 0h8.03m8.02 0h8.03m8.02 0h8.03m8.02 0h8.02m8.02 0h8.02m8.03 0h8.02m8.02 0h8.02m8.03 0h8.02m8.02 0h8.02m8.03 0H907m8.02 0h8.02m8.02 0h8.03m8 0h8.04m8.02 0h8.03m8 0h8.04m8.02 0h8.03m8 0h8.04m8.02 0h8.03m8 0h8.04m8.02 0h8.02m8.03 0h8.03m8.03 0h8.02m8.03 0h8.03m8.03 0h8.02m8.03 0h8.03m8.03 0h8.02m8.03 0h8.03m8.02 0h8.03m8.02 0h8.03m8.02 0h8.03m8.02 0h8.03m8.02 0h8.03m8.02 0h8.03m8.02 0h8.03m8.02 0h8.03m8.02 0h8.02m8.03 0h8.02m8.03 0h8.02m8.03 0h8.02m8.03 0h8.02m8.03 0h8.02m8.03 0h8.02m8.03 0h8.02m8.03 0h8.02m8.02 0h8.02m8.02 0h8.03m8.02 0h8.02m8.02 0h8.03m8.02 0h8.02m8.02 0h8.03m8.02 0h8.02m8.02 0h8.02m8.03 0h8m8.04 0h8.02m8.03 0h8m8.04 0h4v4m0 8v8m0 8v8m0 8v8m0 8v8m0 8v8m0 8v8m0 8v8m0 8v8m0 8v8m0 8v8m0 8v8m0 8v8m0 8v8m0 8v8m0 8v4h-4m-8.03 0h-8m-8.04 0h-8.02m-8.03 0h-8m-8.04 0h-8.02m-8.02 0H1557m-8.03 0h-8.03m-8.02 0h-8.03m-8.03 0h-8.03m-8.02 0h-8.03m-8.03 0h-8.03m-8.02 0h-8.03m-8.03 0h-8.02m-8.03 0h-8.02m-8.03 0h-8.02m-8.03 0h-8.02m-8.03 0h-8.02m-8.03 0h-8.02m-8.03 0h-8.02m-8.03 0h-8.02m-8.03 0h-8.02m-8.02 0h-8.03m-8.02 0h-8.03m-8.02 0h-8.03m-8.02 0h-8.03m-8.02 0H1236m-8.02 0h-8.03m-8.02 0h-8.03m-8.02 0h-8.03m-8.02 0h-8.02m-8.02 0h-8.02m-8.03 0h-8.02m-8.02 0h-8.02m-8.03 0h-8.02m-8.02 0h-8.02m-8.03 0h-8.02m-8.02 0h-8.02m-8.02 0h-8.03m-8 0h-8.04m-8.02 0h-8.03m-8 0h-8.04m-8.02 0h-8.03m-8 0h-8.04m-8.02 0h-8.03m-8 0h-8.04m-8.02 0h-8.02m-8.03 0h-8.03m-8.03 0h-8.02m-8.03 0h-8.03m-8.03 0h-8.02m-8.03 0h-8.03m-8.03 0h-8.02m-8.03 0h-8.03m-8.02 0h-8.03m-8.02 0h-8.03m-8.02 0h-8.03m-8.02 0h-8.03m-8.02 0h-8.03m-8.02 0h-8.03m-8.02 0h-8.03m-8.02 0h-8.03m-8.02 0h-8.02m-8.03 0h-8.02m-8.03 0h-8.02m-8.03 0h-8.02m-8.03 0h-8.02m-8.03 0h-8.02m-8.03 0h-8.02m-8.03 0h-8.02m-8.03 0h-8.02m-8.02 0h-8.02m-8.02 0h-8.03m-8.02 0h-8.02m-8.02 0h-8.03m-8.02 0h-8.02m-8.02 0h-8.03m-8.02 0h-8.02m-8.02 0h-8.02m-8.03 0h-8m-8.04 0h-8.02m-8.03 0h-8m-8.04 0h-4v-4m0-8v-8m0-8v-8m0-8v-8m0-8v-8m0-8v-8m0-8v-8m0-8v-8m0-8v-8m0-8v-8m0-8v-8m0-8v-8m0-8v-8m0-8v-8m0-8v-8m0-8v-4h4"
			stroke="#147eba" stroke-width="2" fill="none"/>
		<path d="M341.37 681.5v-240h39.5v240z" stroke="#000" stroke-opacity="0"
			stroke-width="2" fill="#fff" fill-opacity="0"/>

		<use xlink:href="#a"
			transform="matrix(6.123233995736766e-17,-1,1,6.123233995736766e-17,346.3688908170805,676.50531892602) translate(35.98765432098763 29.582222222222224)"/>
		<use xlink:href="#b"
			transform="matrix(6.123233995736766e-17,-1,1,6.123233995736766e-17,346.3688908170805,676.50531892602) translate(133.962962962963 29.582222222222224)"/>
		<use xlink:href="#c"
			transform="matrix(6.123233995736766e-17,-1,1,6.123233995736766e-17,346.3688908170805,676.50531892602) translate(181.22222222222223 29.582222222222224)"/>

		<!-- Dotten rectangle in Availability Zone B -->
		<path d="M341.25 841.5h1300v240h-1300z" fill="#fff" fill-opacity="0"/>
		<path
			d="M353.3 841.5h8m8.04 0h8.02m8.03 0h8m8.04 0h8.02m8.02 0h8.03m8.03 0h8.03m8.02 0h8.03m8.03 0h8.03m8.02 0h8.03m8.03 0h8.03m8.02 0h8.03m8.03 0h8.02m8.03 0h8.02m8.03 0h8.02m8.03 0H586m8.03 0h8.02m8.03 0h8.02m8.03 0h8.02m8.03 0h8.02m8.03 0h8.02m8.02 0h8.03m8.02 0h8.03m8.02 0h8.03m8.02 0h8.03m8.02 0h8.03m8.02 0h8.03m8.02 0h8.03m8.02 0h8.03m8.02 0h8.02m8.02 0h8.02m8.03 0h8.02m8.02 0h8.02m8.03 0h8.02m8.02 0h8.02m8.03 0H907m8.02 0h8.02m8.02 0h8.03m8 0h8.04m8.02 0h8.03m8 0h8.04m8.02 0h8.03m8 0h8.04m8.02 0h8.03m8 0h8.04m8.02 0h8.02m8.03 0h8.03m8.03 0h8.02m8.03 0h8.03m8.03 0h8.02m8.03 0h8.03m8.03 0h8.02m8.03 0h8.03m8.02 0h8.03m8.02 0h8.03m8.02 0h8.03m8.02 0h8.03m8.02 0h8.03m8.02 0h8.03m8.02 0h8.03m8.02 0h8.03m8.02 0h8.02m8.03 0h8.02m8.03 0h8.02m8.03 0h8.02m8.03 0h8.02m8.03 0h8.02m8.03 0h8.02m8.03 0h8.02m8.03 0h8.02m8.02 0h8.02m8.02 0h8.03m8.02 0h8.02m8.02 0h8.03m8.02 0h8.02m8.02 0h8.03m8.02 0h8.02m8.02 0h8.02m8.03 0h8m8.04 0h8.02m8.03 0h8m8.04 0h4v4m0 8v8m0 8v8m0 8v8m0 8v8m0 8v8m0 8v8m0 8v8m0 8v8m0 8v8m0 8v8m0 8v8m0 8v8m0 8v8m0 8v8m0 8v4h-4m-8.03 0h-8m-8.04 0h-8.02m-8.03 0h-8m-8.04 0h-8.02m-8.02 0H1557m-8.03 0h-8.03m-8.02 0h-8.03m-8.03 0h-8.03m-8.02 0h-8.03m-8.03 0h-8.03m-8.02 0h-8.03m-8.03 0h-8.02m-8.03 0h-8.02m-8.03 0h-8.02m-8.03 0h-8.02m-8.03 0h-8.02m-8.03 0h-8.02m-8.03 0h-8.02m-8.03 0h-8.02m-8.03 0h-8.02m-8.02 0h-8.03m-8.02 0h-8.03m-8.02 0h-8.03m-8.02 0h-8.03m-8.02 0H1236m-8.02 0h-8.03m-8.02 0h-8.03m-8.02 0h-8.03m-8.02 0h-8.02m-8.02 0h-8.02m-8.03 0h-8.02m-8.02 0h-8.02m-8.03 0h-8.02m-8.02 0h-8.02m-8.03 0h-8.02m-8.02 0h-8.02m-8.02 0h-8.03m-8 0h-8.04m-8.02 0h-8.03m-8 0h-8.04m-8.02 0h-8.03m-8 0h-8.04m-8.02 0h-8.03m-8 0h-8.04m-8.02 0h-8.02m-8.03 0h-8.03m-8.03 0h-8.02m-8.03 0h-8.03m-8.03 0h-8.02m-8.03 0h-8.03m-8.03 0h-8.02m-8.03 0h-8.03m-8.02 0h-8.03m-8.02 0h-8.03m-8.02 0h-8.03m-8.02 0h-8.03m-8.02 0h-8.03m-8.02 0h-8.03m-8.02 0h-8.03m-8.02 0h-8.03m-8.02 0h-8.02m-8.03 0h-8.02m-8.03 0h-8.02m-8.03 0h-8.02m-8.03 0h-8.02m-8.03 0h-8.02m-8.03 0h-8.02m-8.03 0h-8.02m-8.03 0h-8.02m-8.02 0h-8.02m-8.02 0h-8.03m-8.02 0h-8.02m-8.02 0h-8.03m-8.02 0h-8.02m-8.02 0h-8.03m-8.02 0h-8.02m-8.02 0h-8.02m-8.03 0h-8m-8.04 0h-8.02m-8.03 0h-8m-8.04 0h-4v-4m0-8v-8m0-8v-8m0-8v-8m0-8v-8m0-8v-8m0-8v-8m0-8v-8m0-8v-8m0-8v-8m0-8v-8m0-8v-8m0-8v-8m0-8v-8m0-8v-8m0-8v-4h4"
			stroke="#147eba" stroke-width="2" fill="none"/>
		<path d="M341.74 1081.5v-240h39.5v240z" stroke="#000" stroke-opacity="0"
			stroke-width="2" fill="#fff" fill-opacity="0"/>

		<use xlink:href="#a"
			transform="matrix(6.123233995736766e-17,-1,1,6.123233995736766e-17,346.7404046589062,1076.5053189260198) translate(35.98765432098763 29.582222222222224)"/>
		<use xlink:href="#b"
			transform="matrix(6.123233995736766e-17,-1,1,6.123233995736766e-17,346.7404046589062,1076.5053189260198) translate(133.962962962963 29.582222222222224)"/>
		<use xlink:href="#d"
			transform="matrix(6.123233995736766e-17,-1,1,6.123233995736766e-17,346.7404046589062,1076.5053189260198) translate(181.22222222222223 29.582222222222224)"/>

		<!-- Green Rectangle Public Subnet 1 in Availability Zone A -->
		<path d="M441.25 460h360v200h-360z" fill="#248814" fill-opacity=".13"/>
		<path d="M441.25 460h56v56h-56v-56z" stroke="#fff" stroke-opacity="0"
			fill="#248814"/>

		<!-- Icon on Publuc Subnet 1 in Availability Zone A -->
		<path
			d="M484.63 482.18c-.15-.17-.34-.25-.56-.25h-5.15v-5.58c-.03-2.54-.96-4.7-2.84-6.4-1.9-1.84-4.15-2.75-6.77-2.75-2.64 0-4.9.83-6.8 2.62-1.9 1.7-2.86 3.87-2.9 6.4v5.66h-5.14c-.25 0-.44.1-.6.25-.15.17-.2.34-.2.6V508c0 .43.33.8.8.8h29.58c.47 0 .8-.37.8-.8v-25.28c0-.2-.05-.38-.2-.54zm-23.46-5.9c.03-2.13.8-3.88 2.37-5.3 1.62-1.5 3.53-2.2 5.74-2.2 2.22 0 4.12.75 5.7 2.25 1.54 1.4 2.32 3.2 2.32 5.32v5.58h-16.16zm22.1 30.94h-28.03v-23.7h28.02z"
			stroke="#fff" stroke-opacity="0" fill="#fff"/>
		<path
			d="M468.45 497.3v6.25h1.6v-6.23c2.13-.4 3.62-2.2 3.63-4.35 0-2.43-1.97-4.4-4.4-4.43-2.2-.03-4.06 1.5-4.44 3.68-.4 2.4 1.2 4.68 3.6 5.1zm.82-7.15c.78 0 1.44.27 2 .82.54.56.82 1.22.8 2 .03 1.55-1.2 2.8-2.74 2.82h-.06c-1.56.1-2.92-1.06-3.04-2.62-.12-1.56 1.05-2.93 2.6-3.03.16-.02.28-.02.44 0z"
			stroke="#fff" stroke-opacity="0" fill="#fff"/>

		<use xlink:href="#e"
			transform="matrix(1,0,0,1,512.25,480) translate(0 14.222222222222223)"/>
		<use xlink:href="#f"
			transform="matrix(1,0,0,1,512.25,480) translate(53.23456790123458 14.222222222222223)"/>
		<use xlink:href="#g"
			transform="matrix(1,0,0,1,512.25,480) translate(114.46913580246915 14.222222222222223)"/>

		<!-- Blue Rectangle Private Subnet 1 in Availability Zone A -->
		<path d="M841.25 460h360v200h-360z" fill="#147eba" fill-opacity=".13"/>
		<path d="M841.25 460h56v56h-56v-56z" stroke="#fff" stroke-opacity="0"
			fill="#147eba"/>
		<path
			d="M884.63 482.18c-.15-.17-.34-.25-.56-.25h-5.15v-5.58c-.03-2.54-.96-4.7-2.84-6.4-1.9-1.84-4.15-2.75-6.77-2.75-2.64 0-4.9.83-6.8 2.62-1.9 1.7-2.86 3.87-2.9 6.4v5.66h-5.14c-.25 0-.44.1-.6.25-.15.17-.2.34-.2.6V508c0 .43.33.8.8.8h29.58c.47 0 .8-.37.8-.8v-25.28c0-.2-.05-.38-.2-.54zm-23.46-5.9c.03-2.13.8-3.88 2.37-5.3 1.62-1.5 3.53-2.2 5.74-2.2 2.22 0 4.12.75 5.7 2.25 1.54 1.4 2.32 3.2 2.32 5.32v5.58h-16.16zm22.1 30.94h-28.03v-23.7h28.02z"
			stroke="#fff" stroke-opacity="0" fill="#fff"/>
		<path
			d="M868.45 497.3v6.25h1.6v-6.23c2.13-.4 3.62-2.2 3.63-4.35 0-2.43-1.97-4.4-4.4-4.43-2.2-.03-4.06 1.5-4.44 3.68-.4 2.4 1.2 4.68 3.6 5.1zm.82-7.15c.78 0 1.44.27 2 .82.54.56.82 1.22.8 2 .03 1.55-1.2 2.8-2.74 2.82h-.06c-1.56.1-2.92-1.06-3.04-2.62-.12-1.56 1.05-2.93 2.6-3.03.16-.02.28-.02.44 0z"
			stroke="#fff" stroke-opacity="0" fill="#fff"/>

		<use xlink:href="#h"
			transform="matrix(1,0,0,1,912.25,480) translate(0 14.222222222222223)"/>
		<use xlink:href="#f"
			transform="matrix(1,0,0,1,912.25,480) translate(60.14814814814815 14.222222222222223)"/>
		<use xlink:href="#g"
			transform="matrix(1,0,0,1,912.25,480) translate(121.38271604938274 14.222222222222223)"/>

		<!-- Blue Rectangle Private Subnet 2 in Availability Zone A -->
		<path d="M1241.25 460h360v200h-360z" fill="#147eba" fill-opacity=".13"/>
		<path d="M1241.25 460h56v56h-56v-56z" stroke="#fff" stroke-opacity="0"
			fill="#147eba"/>
		<path
			d="M1284.63 482.18c-.15-.17-.34-.25-.56-.25h-5.15v-5.58c-.03-2.54-.96-4.7-2.84-6.4-1.9-1.84-4.15-2.75-6.77-2.75-2.64 0-4.9.83-6.8 2.62-1.9 1.7-2.86 3.87-2.9 6.4v5.66h-5.14c-.25 0-.44.1-.6.25-.15.17-.2.34-.2.6V508c0 .43.33.8.8.8h29.58c.47 0 .8-.37.8-.8v-25.28c0-.2-.05-.38-.2-.54zm-23.46-5.9c.03-2.13.8-3.88 2.37-5.3 1.62-1.5 3.53-2.2 5.74-2.2 2.22 0 4.12.75 5.7 2.25 1.54 1.4 2.32 3.2 2.32 5.32v5.58h-16.16zm22.1 30.94h-28.03v-23.7h28.02z"
			stroke="#fff" stroke-opacity="0" fill="#fff"/>
		<path
			d="M1268.45 497.3v6.25h1.6v-6.23c2.13-.4 3.62-2.2 3.63-4.35 0-2.43-1.97-4.4-4.4-4.43-2.2-.03-4.06 1.5-4.44 3.68-.4 2.4 1.2 4.68 3.6 5.1zm.82-7.15c.78 0 1.44.27 2 .82.54.56.82 1.22.8 2 .03 1.55-1.2 2.8-2.74 2.82h-.06c-1.56.1-2.92-1.06-3.04-2.62-.12-1.56 1.05-2.93 2.6-3.03.16-.02.28-.02.44 0z"
			stroke="#fff" stroke-opacity="0" fill="#fff"/>

		<use xlink:href="#h"
			transform="matrix(1,0,0,1,1312.25,480) translate(0 14.222222222222223)"/>
		<use xlink:href="#f"
			transform="matrix(1,0,0,1,1312.25,480) translate(60.14814814814815 14.222222222222223)"/>
		<use xlink:href="#i"
			transform="matrix(1,0,0,1,1312.25,480) translate(121.38271604938274 14.222222222222223)"/>

		<!-- Green Rectangle Public Subnet 2 in Availability Zone B -->
		<path d="M441.25 860h360v200h-360z" fill="#248814" fill-opacity=".13"/>
		<path d="M441.25 860h56v56h-56v-56z" stroke="#fff" stroke-opacity="0"
			fill="#248814"/>
		<path
			d="M484.63 882.18c-.15-.17-.34-.25-.56-.25h-5.15v-5.58c-.03-2.54-.96-4.7-2.84-6.4-1.9-1.84-4.15-2.75-6.77-2.75-2.64 0-4.9.83-6.8 2.62-1.9 1.7-2.86 3.87-2.9 6.4v5.66h-5.14c-.25 0-.44.1-.6.25-.15.17-.2.34-.2.6V908c0 .43.33.8.8.8h29.58c.47 0 .8-.37.8-.8v-25.28c0-.2-.05-.38-.2-.54zm-23.46-5.9c.03-2.13.8-3.88 2.37-5.3 1.62-1.5 3.53-2.2 5.74-2.2 2.22 0 4.12.75 5.7 2.25 1.54 1.4 2.32 3.2 2.32 5.32v5.58h-16.16zm22.1 30.94h-28.03v-23.7h28.02z"
			stroke="#fff" stroke-opacity="0" fill="#fff"/>
		<path
			d="M468.45 897.3v6.25h1.6v-6.23c2.13-.4 3.62-2.2 3.63-4.35 0-2.43-1.97-4.4-4.4-4.43-2.2-.03-4.06 1.5-4.44 3.68-.4 2.4 1.2 4.68 3.6 5.1zm.82-7.15c.78 0 1.44.27 2 .82.54.56.82 1.22.8 2 .03 1.55-1.2 2.8-2.74 2.82h-.06c-1.56.1-2.92-1.06-3.04-2.62-.12-1.56 1.05-2.93 2.6-3.03.16-.02.28-.02.44 0z"
			stroke="#fff" stroke-opacity="0" fill="#fff"/>

		<use xlink:href="#e"
			transform="matrix(1,0,0,1,512.25,880.0000000000001) translate(0 14.222222222222223)"/>
		<use xlink:href="#f"
			transform="matrix(1,0,0,1,512.25,880.0000000000001) translate(53.23456790123458 14.222222222222223)"/>
		<use xlink:href="#j"
			transform="matrix(1,0,0,1,512.25,880.0000000000001) translate(114.46913580246915 14.222222222222223)"/>

		<!-- Blue Rectangle Private Subnet 1 in Availability Zone B -->
		<path d="M841.25 860h360v200h-360z" fill="#147eba" fill-opacity=".13"/>
		<path d="M841.25 860h56v56h-56v-56z" stroke="#fff" stroke-opacity="0"
			fill="#147eba"/>
		<path
			d="M884.63 882.18c-.15-.17-.34-.25-.56-.25h-5.15v-5.58c-.03-2.54-.96-4.7-2.84-6.4-1.9-1.84-4.15-2.75-6.77-2.75-2.64 0-4.9.83-6.8 2.62-1.9 1.7-2.86 3.87-2.9 6.4v5.66h-5.14c-.25 0-.44.1-.6.25-.15.17-.2.34-.2.6V908c0 .43.33.8.8.8h29.58c.47 0 .8-.37.8-.8v-25.28c0-.2-.05-.38-.2-.54zm-23.46-5.9c.03-2.13.8-3.88 2.37-5.3 1.62-1.5 3.53-2.2 5.74-2.2 2.22 0 4.12.75 5.7 2.25 1.54 1.4 2.32 3.2 2.32 5.32v5.58h-16.16zm22.1 30.94h-28.03v-23.7h28.02z"
			stroke="#fff" stroke-opacity="0" fill="#fff"/>
		<path
			d="M868.45 897.3v6.25h1.6v-6.23c2.13-.4 3.62-2.2 3.63-4.35 0-2.43-1.97-4.4-4.4-4.43-2.2-.03-4.06 1.5-4.44 3.68-.4 2.4 1.2 4.68 3.6 5.1zm.82-7.15c.78 0 1.44.27 2 .82.54.56.82 1.22.8 2 .03 1.55-1.2 2.8-2.74 2.82h-.06c-1.56.1-2.92-1.06-3.04-2.62-.12-1.56 1.05-2.93 2.6-3.03.16-.02.28-.02.44 0z"
			stroke="#fff" stroke-opacity="0" fill="#fff"/>

		<use xlink:href="#h"
			transform="matrix(1,0,0,1,912.25,880.0000000000001) translate(0 14.222222222222223)"/>
		<use xlink:href="#f"
			transform="matrix(1,0,0,1,912.25,880.0000000000001) translate(60.14814814814815 14.222222222222223)"/>
		<use xlink:href="#j"
			transform="matrix(1,0,0,1,912.25,880.0000000000001) translate(121.38271604938274 14.222222222222223)"/>

		<!-- Blue Rectangle Private Subnet 2 in Availability Zone B -->
		<path d="M1241.25 860h360v200h-360z" fill="#147eba" fill-opacity=".13"/>
		<path d="M1241.25 860h56v56h-56v-56z" stroke="#fff" stroke-opacity="0"
			fill="#147eba"/>
		<path
			d="M1284.63 882.18c-.15-.17-.34-.25-.56-.25h-5.15v-5.58c-.03-2.54-.96-4.7-2.84-6.4-1.9-1.84-4.15-2.75-6.77-2.75-2.64 0-4.9.83-6.8 2.62-1.9 1.7-2.86 3.87-2.9 6.4v5.66h-5.14c-.25 0-.44.1-.6.25-.15.17-.2.34-.2.6V908c0 .43.33.8.8.8h29.58c.47 0 .8-.37.8-.8v-25.28c0-.2-.05-.38-.2-.54zm-23.46-5.9c.03-2.13.8-3.88 2.37-5.3 1.62-1.5 3.53-2.2 5.74-2.2 2.22 0 4.12.75 5.7 2.25 1.54 1.4 2.32 3.2 2.32 5.32v5.58h-16.16zm22.1 30.94h-28.03v-23.7h28.02z"
			stroke="#fff" stroke-opacity="0" fill="#fff"/>
		<path
			d="M1268.45 897.3v6.25h1.6v-6.23c2.13-.4 3.62-2.2 3.63-4.35 0-2.43-1.97-4.4-4.4-4.43-2.2-.03-4.06 1.5-4.44 3.68-.4 2.4 1.2 4.68 3.6 5.1zm.82-7.15c.78 0 1.44.27 2 .82.54.56.82 1.22.8 2 .03 1.55-1.2 2.8-2.74 2.82h-.06c-1.56.1-2.92-1.06-3.04-2.62-.12-1.56 1.05-2.93 2.6-3.03.16-.02.28-.02.44 0z"
			stroke="#fff" stroke-opacity="0" fill="#fff"/>

		<use xlink:href="#h"
			transform="matrix(1,0,0,1,1312.25,880.0000000000001) translate(0 14.222222222222223)"/>
		<use xlink:href="#f"
			transform="matrix(1,0,0,1,1312.25,880.0000000000001) translate(60.14814814814815 14.222222222222223)"/>
		<use xlink:href="#k"
			transform="matrix(1,0,0,1,1312.25,880.0000000000001) translate(121.38271604938274 14.222222222222223)"/>

		<!-- VPC Rectangle -->
		<path d="M139.36 678.22v55.04c0 6.62 5.37 12 12 12h41.05" stroke="#666"
			fill="none"/>
		<path d="M139.86 678.23h-1v-.5h1z" stroke="#666" stroke-width=".05"
			fill="#666"/>
		<path d="M207.18 745.26l-14.27 4.63v-9.28z" stroke="#666" fill="#666"/>
		<path d="M381.25 360h1240v760h-1240z" stroke="#248814" stroke-width="2"
			fill-opacity="0"/>
		<path d="M381.25 360h56v56h-56v-56z" stroke="#fff" stroke-opacity="0"
			fill="#248814"/>
		<path
			d="M413 388.3h-1.17v-1.1c-.12-1.73-1.48-3.07-3.2-3.2-1.9-.13-3.54 1.3-3.67 3.2v1.07h-1.18c-.44 0-.8.36-.8.8v6.13c0 .44.36.8.8.8H413c.45 0 .8-.36.8-.8v-6.1c0-.44-.35-.8-.8-.8zm-6.4-1.06c.1-1.02 1-1.77 2-1.67.9.08 1.6.77 1.68 1.67v1.06h-3.72zm5.66 7.08h-7.68v-4.42h7.63z"
			stroke="#fff" stroke-opacity="0" fill="#fff"/>
		<path
			d="M423.52 385.74c-.08-2.44-1.58-4.47-3.87-5.3-1.58-.46-3.16-.13-4.4.9-.68-1.44-1.47-2.6-2.6-3.75-3.24-3.36-7.94-4.3-12.18-2.4-4.04 1.9-6.4 5.63-6.54 10.05v.7c-3.4.98-5.66 4.08-5.5 7.65v.63c.4 4.28 3.92 7.52 8.2 7.47h26s7.42-.63 7.42-8.1c.04-3.9-2.66-7.2-6.53-7.86zm-.96 14.4h-25.92c-3.46.05-6.3-2.53-6.58-5.97v-.52c-.16-3.05 1.92-5.7 4.9-6.3.4-.12.64-.48.6-.9-.05-.4-.05-.73 0-1.14.08-3.78 2.12-6.94 5.53-8.6 1.24-.56 2.4-.8 3.82-.84 2.62.08 4.87 1.04 6.7 2.94 1.25 1.3 2.04 2.6 2.62 4.3.04.15.12.28.25.37.36.27.86.2 1.1-.17.84-1.18 2.26-1.67 3.63-1.3 1.8.72 2.87 2.4 2.83 4.32-.08.4.2.82.63.9 3.56.36 6.2 3.55 5.8 7.12-.28 3.13-2.7 5.52-5.8 5.85z"
			stroke="#fff" stroke-opacity="0" fill="#fff"/>

		<use xlink:href="#l"
			transform="matrix(1,0,0,1,452.25,380.00000000000006) translate(0 14.222222222222223)"/>
		<use xlink:href="#m"
			transform="matrix(1,0,0,1,452.25,380.00000000000006) translate(0 33.777777777777786)"/>

		<!-- AWS Account Rectangle -->
		<path d="M241.25 240h1420v1000h-1420z" stroke="#232f3e" stroke-width="2"
			fill-opacity="0"/>
		<path d="M241.25 240h56v56h-56v-56z" stroke="#fff" stroke-opacity="0"
			fill="#232f3e"/>
		<path
			d="M259.47 265.87c-.04.48.05.87.17 1.34.12.4.3.7.5 1.07.03.1.07.22.07.34 0 .2-.1.36-.27.46l-.95.62c-.12.08-.25.13-.37.13-.15 0-.32-.06-.44-.2-.2-.2-.37-.43-.53-.7-.17-.25-.3-.53-.46-.86-1.1 1.37-2.62 2.1-4.4 2.06-1.14.06-2.12-.3-2.95-1.08-.78-.8-1.15-1.76-1.1-2.85-.05-1.23.4-2.28 1.35-3.08 1.07-.85 2.3-1.23 3.66-1.16.57 0 1.02.02 1.6.1.57.1 1.1.2 1.72.33v-1.1c.08-.88-.16-1.67-.7-2.37-.74-.56-1.56-.8-2.46-.7-.54 0-1.04.07-1.6.2-.6.13-1.04.3-1.6.5l-.5.2h-.25c-.2 0-.33-.16-.33-.45v-.75c0-.18.04-.34.12-.5.13-.16.25-.26.4-.33.67-.3 1.2-.5 1.9-.67.78-.2 1.48-.3 2.3-.28 1.48-.13 2.8.26 3.9 1.2.95 1.05 1.36 2.28 1.23 3.67zm-6.07 2.28c.57 0 1.06-.1 1.6-.28.57-.2 1.02-.5 1.44-.96.24-.27.4-.56.5-.93.1-.45.15-.84.15-1.3V264c-.54-.1-.95-.17-1.44-.2h-1.4c-.82-.08-1.56.12-2.22.58-.53.45-.78 1.04-.74 1.73-.04.6.13 1.16.54 1.6.45.38.98.52 1.56.45zm12 1.6c-.22 0-.42-.03-.6-.15-.15-.17-.23-.36-.32-.6l-3.5-11.5-.1-.62c0-.24.1-.37.36-.37h1.48c.2 0 .37.04.57.15.16.18.24.37.28.6l2.5 9.96 2.4-9.93c0-.24.07-.44.27-.6.17-.12.37-.16.58-.15h1.2c.24 0 .4.03.6.15.17.18.25.36.3.6l2.33 9.94 2.55-10c.05-.2.17-.4.34-.58.16-.1.37-.17.57-.14h1.4c.17 0 .34.1.38.3v.31s0 .2-.12.35l-3.62 11.53c-.04.22-.12.42-.3.6-.2.1-.35.14-.56.13h-1.27c-.24.04-.44-.02-.6-.15-.17-.16-.26-.36-.3-.6l-2.3-9.6-2.3 9.6c-.04.24-.12.44-.28.6-.2.13-.4.2-.62.16zm19.2.38c-.82 0-1.5-.07-2.3-.25-.65-.13-1.14-.3-1.72-.6-.2-.1-.37-.23-.45-.42-.08-.14-.12-.28-.12-.43v-.75c0-.3.13-.46.33-.46h.3l.36.16c.57.23 1.02.4 1.6.5.6.14 1.14.2 1.8.2.78.05 1.48-.1 2.18-.5.5-.3.78-.8.73-1.4.06-.4-.1-.76-.35-1.04-.46-.4-.95-.65-1.52-.8l-2.18-.68c-.94-.25-1.73-.73-2.38-1.5-.5-.65-.74-1.35-.74-2.18 0-.6.12-1.08.4-1.6.3-.5.63-.9 1.08-1.22.5-.38 1-.6 1.6-.78.67-.18 1.2-.26 1.9-.25.33-.03.6-.03.98 0l1 .16.8.22.67.26c.16.1.28.22.45.38.08.15.12.3.12.5v.7c0 .32-.12.47-.37.47-.2-.03-.37-.08-.57-.18-.95-.42-1.8-.6-2.88-.58-.7-.04-1.3.1-1.97.4-.5.3-.74.8-.7 1.36 0 .4.13.76.46 1.05.48.4.97.65 1.6.82l2.08.67c.95.24 1.68.7 2.3 1.44.5.64.7 1.3.7 2.1 0 .63-.12 1.17-.37 1.73-.28.55-.6.95-1.1 1.32-.5.4-1 .66-1.6.84-.74.23-1.4.33-2.14.34zM287.36 277.48c-5.6 3.82-11.37 5.58-18.16 5.56-8.54.05-15.82-2.74-22.16-8.45-.5-.42 0-1 .5-.68 7.06 4.05 14.02 5.9 22.2 5.9 6.1-.04 11.28-1.1 16.92-3.47.82-.35 1.5.55.7 1.13z"
			stroke="#fff" stroke-opacity="0" fill="#fff"/>
		<path
			d="M289.4 275.2c-.63-.82-4.15-.38-5.74-.2-.47 0-.54-.36-.1-.66 2.8-1.98 7.4-1.4 8-.74.58.67-.15 5.28-2.8 7.5-.4.32-.77.13-.6-.3.55-1.52 1.87-4.83 1.25-5.6z"
			stroke="#fff" stroke-opacity="0" fill="#fff"/>

		<use xlink:href="#n"
			transform="matrix(1,0,0,1,312.25,259.99999999999994) translate(0 14.222222222222223)"/>
		<use xlink:href="#o"
			transform="matrix(1,0,0,1,312.25,259.99999999999994) translate(45.333333333333336 14.222222222222223)"/>

		<!-- Internet Gateway Logo -->
		<path
			d="M381 778.67c-18.44 0-33.4-14.97-33.4-33.4 0-18.46 14.96-33.43 33.4-33.43 18.45 0 33.42 14.97 33.42 33.42 0 18.44-14.97 33.4-33.4 33.4zm0-63.96c-16.9 0-30.53 13.65-30.53 30.56 0 16.9 13.63 30.54 30.54 30.54 16.92 0 30.55-13.64 30.55-30.54S397.92 714.7 381 714.7z"
			stroke="#fff" stroke-opacity="0" fill="#693cc5"/>
		<path
			d="M397 765.33h-5.33c-.8 0-1.43-.63-1.43-1.42v-27.56c-2.9-1.5-5.64-2.17-8.88-2.25-3.56.07-6.52.85-9.65 2.55v27.26c0 .8-.62 1.43-1.4 1.43h-5.28c-.8 0-1.43-.63-1.43-1.42v-31c0-.43.16-.8.48-1.06 5.08-4.18 10.73-6.12 17.28-5.96 6.2-.12 11.53 1.62 16.5 5.3.4.26.57.66.57 1.1v31.63c0 .8-.63 1.43-1.43 1.43zm-3.9-2.84h2.47v-29.52c-4.36-3-8.92-4.34-14.2-4.26-5.62-.16-10.47 1.42-14.92 4.8v28.97h2.43v-26.76c0-.55.28-1.02.77-1.26 3.76-2.13 7.4-3.16 11.7-3.23 3.94.1 7.3.98 10.77 2.84h.14c.52.22.84.7.84 1.3z"
			stroke="#fff" stroke-opacity="0" fill="#693cc5"/>

		<!-- Internet Gateway Logo Text -->
		<g><use xlink:href="#p"
			transform="matrix(1,0,0,1,317.59228894229534,787.6714484450406) translate(33.40123456790123 14.222222222222223)"/>
			<use xlink:href="#q"
				transform="matrix(1,0,0,1,317.59228894229534,787.6714484450406) translate(28.462962962962962 35.55555555555556)"/></g>

		<!--  DNS Resolution Logo -->
		<path d="M208.8 713.34h64.75v63.83H208.8v-63.83z" stroke="#fff"
			stroke-opacity="0" fill="#693cc5"/>
		<path
			d="M232.36 749.9c1.15.4 2.17.57 3.4.6.75.07 1.43-.1 2.07-.56.5-.46.74-1.03.7-1.7.07-.7-.15-1.32-.66-1.82-.68-.44-1.4-.62-2.2-.55-1 0-1.8.06-2.77.17v-1.2l.33-5.26h6.5V741h-5.03l-.23 3.56c.6-.1 1.1-.16 1.72-.16 1.14-.07 2.13.26 3 1 .78.74 1.15 1.68 1.08 2.75.04 1.1-.4 2.08-1.25 2.78-1 .77-2.08 1.12-3.34 1.07-1.24 0-2.28-.2-3.4-.7zM246.47 744.78h.32c1.05-.08 2 .22 2.82.9.74.7 1.1 1.56 1.03 2.55.03 1.1-.4 2.04-1.27 2.74-1.02.75-2.1 1.08-3.38 1.02-1.2 0-2.22-.23-3.3-.7v-1.4c1.1.4 2.1.57 3.3.6.78.07 1.46-.13 2.1-.57.5-.45.76-1.04.7-1.7 0-1.43-.9-2.14-2.7-2.14-.6 0-1.13.02-1.73.08v-1.16l3.74-4h-5.22v-1.46h7.25v1.4z"
			stroke="#fff" stroke-opacity="0" fill="#fff"/>
		<path
			d="M241.18 761.43c-.17 0-.3-.04-.45-.13-2.93-1.7-5.7-2.74-9.04-3.4-1.84-.32-7.78-1.7-7.78-5.95 0-1.93.76-3.22 1.73-4.82 1.48-2.18 2.24-4.38 2.35-7 0-2.52-.66-4.63-2.08-6.74-.2-.32-.17-.7.07-1l1.37-1.7c.28-.33.73-.42 1.1-.2 1.87 1.07 3.67 1.54 5.84 1.57 2.4.03 4.43-.6 6.36-1.98.3-.23.72-.23 1 0 1.97 1.37 4 2 6.4 1.97 2.12-.03 3.95-.53 5.82-1.57.38-.22.83-.13 1.1.2l1.38 1.7c.24.27.28.68.07 1-1.4 2.07-2.04 4.2-2.07 6.73 0 3.03 1.24 5.1 2.35 7 .97 1.6 1.73 2.9 1.73 4.82 0 4.25-5.93 5.63-7.76 5.95-3.35.66-6.1 1.67-9.04 3.4-.14.1-.28.13-.45.13zm-13.46-28.5c1.34 2.26 1.97 4.5 1.97 7.1 0 3.5-1.43 5.93-2.6 7.85-.86 1.5-1.45 2.52-1.45 3.97 0 3.02 5.28 4.13 6.3 4.32 3.43.66 6.2 1.7 9.2 3.4 3-1.7 5.8-2.74 9.17-3.4 1.07-.2 6.35-1.3 6.35-4.32 0-1.45-.58-2.46-1.48-3.97-1.15-1.92-2.6-4.34-2.6-7.84.03-2.6.66-4.85 2.04-7.12l-.56-.66c-1.93.98-3.83 1.45-6.03 1.45-2.56.04-4.73-.56-6.9-1.94-2.15 1.38-4.36 1.98-6.9 1.95-2.22 0-4.08-.46-6.05-1.44z"
			stroke="#fff" stroke-opacity="0" fill="#fff"/>
		<path
			d="M241.2 766.53c-.23 0-.4-.04-.57-.17-3.06-2.17-6.04-3.5-9.7-4.25-7.12-1.27-11.35-5.14-11.35-10.24.1-2.6.78-4.8 2.3-6.97.94-1.6 1.7-2.95 1.7-4.82-.07-2.6-1.15-4.76-3.14-6.5-.4-.26-.47-.8-.17-1.2.04 0 .04-.04.04-.04 0-.08 5.1-6.08 6.27-7.6.13-.27.4-.4.64-.4.32 0 .53.1.75.3 1.64 1.92 3.75 2.98 6.34 3.1 2.4 0 4.3-1.05 6.1-3.4.36-.38.96-.46 1.35-.12.04.04.1.08.13.13 1.8 2.38 3.7 3.4 6.13 3.4 2.6-.13 4.7-1.2 6.35-3.1.2-.22.43-.3.73-.3.26 0 .52.12.65.38 1.16 1.53 6.2 7.53 6.25 7.6.13.18.22.4.17.65 0 .25-.13.43-.3.6-1.98 1.74-3.06 3.9-3.15 6.5 0 1.87.82 3.23 1.73 4.8 1.5 2.18 2.2 4.4 2.28 6.98 0 5.1-4.2 8.97-11.33 10.25-3.67.77-6.64 2.05-9.7 4.26-.13.1-.3.17-.48.17zm-18.95-33.72c2.07 2.05 3.1 4.43 3.15 7.28 0 2.34-1 4.04-1.98 5.7-1.04 1.83-2.03 3.5-2.03 6.12 0 6.2 7.54 8.04 9.83 8.47 3.75.76 6.8 2.04 9.96 4.16 3.1-2.12 6.16-3.4 9.9-4.16 2.3-.43 9.85-2.26 9.85-8.47 0-2.63-1-4.25-2.03-6.12-1-1.7-2-3.4-2-5.7.06-2.85 1.1-5.23 3.16-7.27-1.16-1.35-3.75-4.46-5.13-6.2-1.94 1.87-4.23 2.85-6.9 2.94-2.8 0-5.18-1.15-6.9-3.28-1.77 2.13-4.14 3.28-6.95 3.28-2.67-.1-4.96-1.07-6.9-2.94-1.25 1.74-3.88 4.85-5.05 6.2z"
			stroke="#fff" stroke-opacity="0" fill="#fff"/>

		<!-- DNS Resolution Logo Text -->
		<g><use xlink:href="#r"
			transform="matrix(1,0,0,1,178.7964829301879,786.1694788751297) translate(43.78395061728395 14.222222222222223)"/>
			<use xlink:href="#s"
				transform="matrix(1,0,0,1,178.7964829301879,786.1694788751297) translate(20.59876543209876 35.55555555555556)"/></g>

		<!--- Header -->
		<path
			d="M453.15 77c0-4.42 3.58-8 8-8h836.75c4.4 0 8 3.58 8 8v25.16c0 4.4-3.6 8-8 8H461.15c-4.42 0-8-3.6-8-8z"
			stroke="#000" stroke-opacity="0" stroke-width="2" fill="#fff"
			fill-opacity="0"/>
		<g><use xlink:href="#t"
			transform="matrix(1,0,0,1,457.14655278534315,73) translate(218.61802469135802 25.782777777777778)"/>
			<use xlink:href="#u"
				transform="matrix(1,0,0,1,457.14655278534315,73) translate(285.4846913580247 25.782777777777778)"/>
			<use xlink:href="#v"
				transform="matrix(1,0,0,1,457.14655278534315,73) translate(368.376049382716 25.782777777777778)"/>
			<use xlink:href="#w"
				transform="matrix(1,0,0,1,457.14655278534315,73) translate(500.57975308641977 25.782777777777778)"/></g>
		<path d="M636.6 108.8h493.13M636.63 108.8h-1.03M1129.7 108.8h1.03"
			stroke="#a9afb8" stroke-width="2" fill="none"/>
		<path
			d="M453.15 118.16c0-4.42 3.58-8 8-8h837.7c4.42 0 8 3.58 8 8V121c0 4.42-3.58 8-8 8h-837.7c-4.42 0-8-3.58-8-8z"
			stroke="#000" stroke-opacity="0" stroke-width="2" fill="#fff"
			fill-opacity="0"/>
		<g><use xlink:href="#x"
			transform="matrix(1,0,0,1,457.1465527853436,114.15522395689881) translate(319.12970164609055 14.917037037037037)"/>
			<use xlink:href="#y"
				transform="matrix(1,0,0,1,457.1465527853436,114.15522395689881) translate(375.9384465020576 14.917037037037037)"/>
			<use xlink:href="#z"
				transform="matrix(1,0,0,1,457.1465527853436,114.15522395689881) translate(435.33906378600824 14.917037037037037)"/>
			<use xlink:href="#A"
				transform="matrix(1,0,0,1,457.1465527853436,114.15522395689881) translate(447.78854938271604 14.917037037037037)"/>
			<use xlink:href="#B"
				transform="matrix(1,0,0,1,457.1465527853436,114.15522395689881) translate(482.5026440329218 14.917037037037037)"/>
			<use xlink:href="#C"
				transform="matrix(1,0,0,1,457.1465527853436,114.15522395689881) translate(499.4985288065843 14.917037037037037)"/></g>

		<defs>
			<path fill="#666"
				d="M199 0l-22-63H83L61 0H9l90-248h61L250 0h-51zm-33-102l-36-108c-10 38-24 72-36 108h72"
				id="D"/>
			<path fill="#666" d="M128 0H69L1-190h53L99-40l48-150h52" id="E"/>
			<path fill="#666"
				d="M133-34C117-15 103 5 69 4 32 3 11-16 11-54c-1-60 55-63 116-61 1-26-3-47-28-47-18 1-26 9-28 27l-52-2c7-38 36-58 82-57s74 22 75 68l1 82c-1 14 12 18 25 15v27c-30 8-71 5-69-32zm-48 3c29 0 43-24 42-57-32 0-66-3-65 30 0 17 8 27 23 27"
				id="F"/>
			<path fill="#666" d="M25-224v-37h50v37H25zM25 0v-190h50V0H25" id="G"/>
			<path fill="#666" d="M25 0v-261h50V0H25" id="H"/>
			<path fill="#666"
				d="M135-194c52 0 70 43 70 98 0 56-19 99-73 100-30 1-46-15-58-35L72 0H24l1-261h50v104c11-23 29-37 60-37zM114-30c31 0 40-27 40-66 0-37-7-63-39-63s-41 28-41 65c0 36 8 64 40 64"
				id="I"/>
			<path fill="#666"
				d="M115-3C79 11 28 4 28-45v-112H4v-33h27l15-45h31v45h36v33H77v99c-1 23 16 31 38 25v30"
				id="J"/>
			<path fill="#666"
				d="M123 10C108 53 80 86 19 72V37c35 8 53-11 59-39L3-190h52l48 148c12-52 28-100 44-148h51"
				id="K"/>
			<g id="a"><use
				transform="matrix(0.04938271604938272,0,0,0.04938271604938272,0,0)"
				xlink:href="#D"/>
				<use
					transform="matrix(0.04938271604938272,0,0,0.04938271604938272,12.14814814814815,0)"
					xlink:href="#E"/>
				<use
					transform="matrix(0.04938271604938272,0,0,0.04938271604938272,22.024691358024697,0)"
					xlink:href="#F"/>
				<use
					transform="matrix(0.04938271604938272,0,0,0.04938271604938272,31.90123456790124,0)"
					xlink:href="#G"/>
				<use
					transform="matrix(0.04938271604938272,0,0,0.04938271604938272,36.83950617283951,0)"
					xlink:href="#H"/>
				<use
					transform="matrix(0.04938271604938272,0,0,0.04938271604938272,41.777777777777786,0)"
					xlink:href="#F"/>
				<use
					transform="matrix(0.04938271604938272,0,0,0.04938271604938272,51.65432098765432,0)"
					xlink:href="#I"/>
				<use
					transform="matrix(0.04938271604938272,0,0,0.04938271604938272,62.469135802469154,0)"
					xlink:href="#G"/>
				<use
					transform="matrix(0.04938271604938272,0,0,0.04938271604938272,67.40740740740742,0)"
					xlink:href="#H"/>
				<use
					transform="matrix(0.04938271604938272,0,0,0.04938271604938272,72.3456790123457,0)"
					xlink:href="#G"/>
				<use
					transform="matrix(0.04938271604938272,0,0,0.04938271604938272,77.28395061728398,0)"
					xlink:href="#J"/>
				<use
					transform="matrix(0.04938271604938272,0,0,0.04938271604938272,83.16049382716052,0)"
					xlink:href="#K"/></g>
			<path fill="#666"
				d="M210 0H11v-37l134-170H24v-41h178v36L68-41h142V0" id="L"/>
			<path fill="#666"
				d="M110-194c64 0 96 36 96 99 0 64-35 99-97 99-61 0-95-36-95-99 0-62 34-99 96-99zm-1 164c35 0 45-28 45-65 0-40-10-65-43-65-34 0-45 26-45 65 0 36 10 65 43 65"
				id="M"/>
			<path fill="#666"
				d="M135-194c87-1 58 113 63 194h-50c-7-57 23-157-34-157-59 0-34 97-39 157H25l-1-190h47c2 12-1 28 3 38 12-26 28-41 61-42"
				id="N"/>
			<path fill="#666"
				d="M185-48c-13 30-37 53-82 52C43 2 14-33 14-96s30-98 90-98c62 0 83 45 84 108H66c0 31 8 55 39 56 18 0 30-7 34-22zm-45-69c5-46-57-63-70-21-2 6-4 13-4 21h74"
				id="O"/>
			<g id="b"><use
				transform="matrix(0.04938271604938272,0,0,0.04938271604938272,0,0)"
				xlink:href="#L"/>
				<use
					transform="matrix(0.04938271604938272,0,0,0.04938271604938272,10.814814814814815,0)"
					xlink:href="#M"/>
				<use
					transform="matrix(0.04938271604938272,0,0,0.04938271604938272,21.62962962962963,0)"
					xlink:href="#N"/>
				<use
					transform="matrix(0.04938271604938272,0,0,0.04938271604938272,32.44444444444444,0)"
					xlink:href="#O"/></g>
			<use
				transform="matrix(0.04938271604938272,0,0,0.04938271604938272,0,0)"
				xlink:href="#D" id="c"/>
			<path fill="#666"
				d="M182-130c37 4 62 22 62 59C244 23 116-4 24 0v-248c84 5 203-23 205 63 0 31-19 50-47 55zM76-148c40-3 101 13 101-30 0-44-60-28-101-31v61zm0 110c48-3 116 14 116-37 0-48-69-32-116-35v72"
				id="P"/>
			<use
				transform="matrix(0.04938271604938272,0,0,0.04938271604938272,0,0)"
				xlink:href="#P" id="d"/>
			<path fill="#666"
				d="M30-248c87 1 191-15 191 75 0 78-77 80-158 76V0H30v-248zm33 125c57 0 124 11 124-50 0-59-68-47-124-48v98"
				id="Q"/>
			<path fill="#666"
				d="M84 4C-5 8 30-112 23-190h32v120c0 31 7 50 39 49 72-2 45-101 50-169h31l1 190h-30c-1-10 1-25-2-33-11 22-28 36-60 37"
				id="R"/>
			<path fill="#666"
				d="M115-194c53 0 69 39 70 98 0 66-23 100-70 100C84 3 66-7 56-30L54 0H23l1-261h32v101c10-23 28-34 59-34zm-8 174c40 0 45-34 45-75 0-40-5-75-45-74-42 0-51 32-51 76 0 43 10 73 51 73"
				id="S"/>
			<path fill="#666" d="M24 0v-261h32V0H24" id="T"/>
			<path fill="#666" d="M24-231v-30h32v30H24zM24 0v-190h32V0H24" id="U"/>
			<path fill="#666"
				d="M96-169c-40 0-48 33-48 73s9 75 48 75c24 0 41-14 43-38l32 2c-6 37-31 61-74 61-59 0-76-41-82-99-10-93 101-131 147-64 4 7 5 14 7 22l-32 3c-4-21-16-35-41-35"
				id="V"/>
			<g id="e"><use
				transform="matrix(0.04938271604938272,0,0,0.04938271604938272,0,0)"
				xlink:href="#Q"/>
				<use
					transform="matrix(0.04938271604938272,0,0,0.04938271604938272,11.851851851851853,0)"
					xlink:href="#R"/>
				<use
					transform="matrix(0.04938271604938272,0,0,0.04938271604938272,21.7283950617284,0)"
					xlink:href="#S"/>
				<use
					transform="matrix(0.04938271604938272,0,0,0.04938271604938272,31.60493827160494,0)"
					xlink:href="#T"/>
				<use
					transform="matrix(0.04938271604938272,0,0,0.04938271604938272,35.50617283950618,0)"
					xlink:href="#U"/>
				<use
					transform="matrix(0.04938271604938272,0,0,0.04938271604938272,39.40740740740741,0)"
					xlink:href="#V"/></g>
			<path fill="#666"
				d="M185-189c-5-48-123-54-124 2 14 75 158 14 163 119 3 78-121 87-175 55-17-10-28-26-33-46l33-7c5 56 141 63 141-1 0-78-155-14-162-118-5-82 145-84 179-34 5 7 8 16 11 25"
				id="W"/>
			<path fill="#666"
				d="M117-194c89-4 53 116 60 194h-32v-121c0-31-8-49-39-48C34-167 62-67 57 0H25l-1-190h30c1 10-1 24 2 32 11-22 29-35 61-36"
				id="X"/>
			<path fill="#666"
				d="M100-194c63 0 86 42 84 106H49c0 40 14 67 53 68 26 1 43-12 49-29l28 8c-11 28-37 45-77 45C44 4 14-33 15-96c1-61 26-98 85-98zm52 81c6-60-76-77-97-28-3 7-6 17-6 28h103"
				id="Y"/>
			<path fill="#666"
				d="M59-47c-2 24 18 29 38 22v24C64 9 27 4 27-40v-127H5v-23h24l9-43h21v43h35v23H59v120"
				id="Z"/>
			<g id="f"><use
				transform="matrix(0.04938271604938272,0,0,0.04938271604938272,0,0)"
				xlink:href="#W"/>
				<use
					transform="matrix(0.04938271604938272,0,0,0.04938271604938272,11.851851851851853,0)"
					xlink:href="#R"/>
				<use
					transform="matrix(0.04938271604938272,0,0,0.04938271604938272,21.7283950617284,0)"
					xlink:href="#S"/>
				<use
					transform="matrix(0.04938271604938272,0,0,0.04938271604938272,31.60493827160494,0)"
					xlink:href="#X"/>
				<use
					transform="matrix(0.04938271604938272,0,0,0.04938271604938272,41.48148148148149,0)"
					xlink:href="#Y"/>
				<use
					transform="matrix(0.04938271604938272,0,0,0.04938271604938272,51.35802469135803,0)"
					xlink:href="#Z"/></g>
			<path fill="#666"
				d="M27 0v-27h64v-190l-56 39v-29l58-41h29v221h61V0H27" id="aa"/>
			<use
				transform="matrix(0.04938271604938272,0,0,0.04938271604938272,0,0)"
				xlink:href="#aa" id="g"/>
			<path fill="#666"
				d="M114-163C36-179 61-72 57 0H25l-1-190h30c1 12-1 29 2 39 6-27 23-49 58-41v29"
				id="ab"/>
			<path fill="#666" d="M108 0H70L1-190h34L89-25l56-165h34" id="ac"/>
			<path fill="#666"
				d="M141-36C126-15 110 5 73 4 37 3 15-17 15-53c-1-64 63-63 125-63 3-35-9-54-41-54-24 1-41 7-42 31l-33-3c5-37 33-52 76-52 45 0 72 20 72 64v82c-1 20 7 32 28 27v20c-31 9-61-2-59-35zM48-53c0 20 12 33 32 33 41-3 63-29 60-74-43 2-92-5-92 41"
				id="ad"/>
			<g id="h"><use
				transform="matrix(0.04938271604938272,0,0,0.04938271604938272,0,0)"
				xlink:href="#Q"/>
				<use
					transform="matrix(0.04938271604938272,0,0,0.04938271604938272,11.851851851851853,0)"
					xlink:href="#ab"/>
				<use
					transform="matrix(0.04938271604938272,0,0,0.04938271604938272,17.728395061728396,0)"
					xlink:href="#U"/>
				<use
					transform="matrix(0.04938271604938272,0,0,0.04938271604938272,21.62962962962963,0)"
					xlink:href="#ac"/>
				<use
					transform="matrix(0.04938271604938272,0,0,0.04938271604938272,30.518518518518523,0)"
					xlink:href="#ad"/>
				<use
					transform="matrix(0.04938271604938272,0,0,0.04938271604938272,40.39506172839506,0)"
					xlink:href="#Z"/>
				<use
					transform="matrix(0.04938271604938272,0,0,0.04938271604938272,45.333333333333336,0)"
					xlink:href="#Y"/></g>
			<path fill="#666"
				d="M126-127c33 6 58 20 58 59 0 88-139 92-164 29-3-8-5-16-6-25l32-3c6 27 21 44 54 44 32 0 52-15 52-46 0-38-36-46-79-43v-28c39 1 72-4 72-42 0-27-17-43-46-43-28 0-47 15-49 41l-32-3c6-42 35-63 81-64 48-1 79 21 79 65 0 36-21 52-52 59"
				id="ae"/>
			<use
				transform="matrix(0.04938271604938272,0,0,0.04938271604938272,0,0)"
				xlink:href="#ae" id="i"/>
			<path fill="#666"
				d="M101-251c82-7 93 87 43 132L82-64C71-53 59-42 53-27h129V0H18c2-99 128-94 128-182 0-28-16-43-45-43s-46 15-49 41l-32-3c6-41 34-60 81-64"
				id="af"/>
			<use
				transform="matrix(0.04938271604938272,0,0,0.04938271604938272,0,0)"
				xlink:href="#af" id="j"/>
			<path fill="#666"
				d="M155-56V0h-30v-56H8v-25l114-167h33v167h35v25h-35zm-30-156c-27 46-58 90-88 131h88v-131"
				id="ag"/>
			<use
				transform="matrix(0.04938271604938272,0,0,0.04938271604938272,0,0)"
				xlink:href="#ag" id="k"/>
			<path fill="#666"
				d="M147 0H94L2-248h55l64 206c17-72 42-137 63-206h54" id="ah"/>
			<path fill="#666"
				d="M24-248c93 1 206-16 204 79-1 75-69 88-152 82V0H24v-248zm52 121c47 0 100 7 100-41 0-47-54-39-100-39v80"
				id="ai"/>
			<path fill="#666"
				d="M67-125c0 53 21 87 73 88 37 1 54-22 65-47l45 17C233-25 199 4 140 4 58 4 20-42 15-125 8-235 124-281 211-232c18 10 29 29 36 50l-46 12c-8-25-30-41-62-41-52 0-71 34-72 86"
				id="aj"/>
			<g id="l"><use
				transform="matrix(0.04938271604938272,0,0,0.04938271604938272,0,0)"
				xlink:href="#ah"/>
				<use
					transform="matrix(0.04938271604938272,0,0,0.04938271604938272,11.851851851851853,0)"
					xlink:href="#ai"/>
				<use
					transform="matrix(0.04938271604938272,0,0,0.04938271604938272,23.703703703703706,0)"
					xlink:href="#aj"/></g>
			<path fill="#666"
				d="M101-251c68 0 85 55 85 127S166 4 100 4C33 4 14-52 14-124c0-73 17-127 87-127zm-1 229c47 0 54-49 54-102s-4-102-53-102c-51 0-55 48-55 102 0 53 5 102 54 102"
				id="ak"/>
			<path fill="#666" d="M33 0v-38h34V0H33" id="al"/>
			<path fill="#666" d="M0 4l72-265h28L28 4H0" id="am"/>
			<path fill="#666"
				d="M110-160c48 1 74 30 74 79 0 53-28 85-80 85-65 0-83-55-86-122-5-90 50-162 133-122 14 7 22 21 27 39l-31 6c-5-40-67-38-82-6-9 19-15 44-15 74 11-20 30-34 60-33zm-7 138c34 0 49-23 49-58s-16-56-50-56c-29 0-50 16-49 49 1 36 15 65 50 65"
				id="an"/>
			<g id="m"><use
				transform="matrix(0.04320987654320988,0,0,0.04320987654320988,0,0)"
				xlink:href="#aa"/>
				<use
					transform="matrix(0.04320987654320988,0,0,0.04320987654320988,8.641975308641976,0)"
					xlink:href="#ak"/>
				<use
					transform="matrix(0.04320987654320988,0,0,0.04320987654320988,17.283950617283953,0)"
					xlink:href="#al"/>
				<use
					transform="matrix(0.04320987654320988,0,0,0.04320987654320988,21.60493827160494,0)"
					xlink:href="#ak"/>
				<use
					transform="matrix(0.04320987654320988,0,0,0.04320987654320988,30.24691358024692,0)"
					xlink:href="#al"/>
				<use
					transform="matrix(0.04320987654320988,0,0,0.04320987654320988,34.567901234567906,0)"
					xlink:href="#ak"/>
				<use
					transform="matrix(0.04320987654320988,0,0,0.04320987654320988,43.20987654320988,0)"
					xlink:href="#al"/>
				<use
					transform="matrix(0.04320987654320988,0,0,0.04320987654320988,47.53086419753087,0)"
					xlink:href="#ak"/>
				<use
					transform="matrix(0.04320987654320988,0,0,0.04320987654320988,56.17283950617284,0)"
					xlink:href="#am"/>
				<use
					transform="matrix(0.04320987654320988,0,0,0.04320987654320988,60.49382716049384,0)"
					xlink:href="#aa"/>
				<use
					transform="matrix(0.04320987654320988,0,0,0.04320987654320988,69.13580246913581,0)"
					xlink:href="#an"/></g>
			<path fill="#666"
				d="M275 0h-61l-44-196L126 0H64L0-248h53L97-49l45-199h58l43 199 44-199h52"
				id="ao"/>
			<path fill="#666"
				d="M169-182c-1-43-94-46-97-3 18 66 151 10 154 114 3 95-165 93-204 36-6-8-10-19-12-30l50-8c3 46 112 56 116 5-17-69-150-10-154-114-4-87 153-88 188-35 5 8 8 18 10 28"
				id="ap"/>
			<g id="n"><use
				transform="matrix(0.04938271604938272,0,0,0.04938271604938272,0,0)"
				xlink:href="#D"/>
				<use
					transform="matrix(0.04938271604938272,0,0,0.04938271604938272,11.80246913580247,0)"
					xlink:href="#ao"/>
				<use
					transform="matrix(0.04938271604938272,0,0,0.04938271604938272,28.543209876543205,0)"
					xlink:href="#ap"/></g>
			<path fill="#666"
				d="M85 4C-2 5 27-109 22-190h50c7 57-23 150 33 157 60-5 35-97 40-157h50l1 190h-47c-2-12 1-28-3-38-12 25-28 42-61 42"
				id="aq"/>
			<path fill="#666"
				d="M88-194c31-1 46 15 58 34l-1-101h50l1 261h-48c-2-10 0-23-3-31C134-8 116 4 84 4 32 4 16-41 15-95c0-56 19-97 73-99zm17 164c33 0 40-30 41-66 1-37-9-64-41-64s-38 30-39 65c0 43 13 65 39 65"
				id="ar"/>
			<g id="o"><use
				transform="matrix(0.04938271604938272,0,0,0.04938271604938272,0,0)"
				xlink:href="#aj"/>
				<use
					transform="matrix(0.04938271604938272,0,0,0.04938271604938272,12.790123456790125,0)"
					xlink:href="#H"/>
				<use
					transform="matrix(0.04938271604938272,0,0,0.04938271604938272,17.7283950617284,0)"
					xlink:href="#M"/>
				<use
					transform="matrix(0.04938271604938272,0,0,0.04938271604938272,28.54320987654322,0)"
					xlink:href="#aq"/>
				<use
					transform="matrix(0.04938271604938272,0,0,0.04938271604938272,39.35802469135803,0)"
					xlink:href="#ar"/></g>
			<path fill="#666" d="M33 0v-248h34V0H33" id="as"/>
			<g id="p"><use
				transform="matrix(0.04938271604938272,0,0,0.04938271604938272,0,0)"
				xlink:href="#as"/>
				<use
					transform="matrix(0.04938271604938272,0,0,0.04938271604938272,4.938271604938272,0)"
					xlink:href="#X"/>
				<use
					transform="matrix(0.04938271604938272,0,0,0.04938271604938272,14.814814814814817,0)"
					xlink:href="#Z"/>
				<use
					transform="matrix(0.04938271604938272,0,0,0.04938271604938272,19.75308641975309,0)"
					xlink:href="#Y"/>
				<use
					transform="matrix(0.04938271604938272,0,0,0.04938271604938272,29.629629629629633,0)"
					xlink:href="#ab"/>
				<use
					transform="matrix(0.04938271604938272,0,0,0.04938271604938272,35.50617283950618,0)"
					xlink:href="#X"/>
				<use
					transform="matrix(0.04938271604938272,0,0,0.04938271604938272,45.38271604938272,0)"
					xlink:href="#Y"/>
				<use
					transform="matrix(0.04938271604938272,0,0,0.04938271604938272,55.25925925925927,0)"
					xlink:href="#Z"/></g>
			<path fill="#666"
				d="M143 4C61 4 22-44 18-125c-5-107 100-154 193-111 17 8 29 25 37 43l-32 9c-13-25-37-40-76-40-61 0-88 39-88 99 0 61 29 100 91 101 35 0 62-11 79-27v-45h-74v-28h105v86C228-13 192 4 143 4"
				id="at"/>
			<path fill="#666"
				d="M206 0h-36l-40-164L89 0H53L-1-190h32L70-26l43-164h34l41 164 42-164h31"
				id="au"/>
			<path fill="#666"
				d="M179-190L93 31C79 59 56 82 12 73V49c39 6 53-20 64-50L1-190h34L92-34l54-156h33"
				id="av"/>
			<g id="q"><use
				transform="matrix(0.04938271604938272,0,0,0.04938271604938272,0,0)"
				xlink:href="#at"/>
				<use
					transform="matrix(0.04938271604938272,0,0,0.04938271604938272,13.827160493827162,0)"
					xlink:href="#ad"/>
				<use
					transform="matrix(0.04938271604938272,0,0,0.04938271604938272,23.703703703703706,0)"
					xlink:href="#Z"/>
				<use
					transform="matrix(0.04938271604938272,0,0,0.04938271604938272,28.641975308641978,0)"
					xlink:href="#Y"/>
				<use
					transform="matrix(0.04938271604938272,0,0,0.04938271604938272,38.51851851851852,0)"
					xlink:href="#au"/>
				<use
					transform="matrix(0.04938271604938272,0,0,0.04938271604938272,51.308641975308646,0)"
					xlink:href="#ad"/>
				<use
					transform="matrix(0.04938271604938272,0,0,0.04938271604938272,61.18518518518519,0)"
					xlink:href="#av"/></g>
			<path fill="#666"
				d="M30-248c118-7 216 8 213 122C240-48 200 0 122 0H30v-248zM63-27c89 8 146-16 146-99s-60-101-146-95v194"
				id="aw"/>
			<path fill="#666"
				d="M190 0L58-211 59 0H30v-248h39L202-35l-2-213h31V0h-41" id="ax"/>
			<g id="r"><use
				transform="matrix(0.04938271604938272,0,0,0.04938271604938272,0,0)"
				xlink:href="#aw"/>
				<use
					transform="matrix(0.04938271604938272,0,0,0.04938271604938272,12.790123456790125,0)"
					xlink:href="#ax"/>
				<use
					transform="matrix(0.04938271604938272,0,0,0.04938271604938272,25.58024691358025,0)"
					xlink:href="#W"/></g>
			<path fill="#666"
				d="M233-177c-1 41-23 64-60 70L243 0h-38l-65-103H63V0H30v-248c88 3 205-21 203 71zM63-129c60-2 137 13 137-47 0-61-80-42-137-45v92"
				id="ay"/>
			<path fill="#666"
				d="M135-143c-3-34-86-38-87 0 15 53 115 12 119 90S17 21 10-45l28-5c4 36 97 45 98 0-10-56-113-15-118-90-4-57 82-63 122-42 12 7 21 19 24 35"
				id="az"/>
			<path fill="#666"
				d="M100-194c62-1 85 37 85 99 1 63-27 99-86 99S16-35 15-95c0-66 28-99 85-99zM99-20c44 1 53-31 53-75 0-43-8-75-51-75s-53 32-53 75 10 74 51 75"
				id="aA"/>
			<g id="s"><use
				transform="matrix(0.04938271604938272,0,0,0.04938271604938272,0,0)"
				xlink:href="#ay"/>
				<use
					transform="matrix(0.04938271604938272,0,0,0.04938271604938272,12.790123456790125,0)"
					xlink:href="#Y"/>
				<use
					transform="matrix(0.04938271604938272,0,0,0.04938271604938272,22.66666666666667,0)"
					xlink:href="#az"/>
				<use
					transform="matrix(0.04938271604938272,0,0,0.04938271604938272,31.555555555555557,0)"
					xlink:href="#aA"/>
				<use
					transform="matrix(0.04938271604938272,0,0,0.04938271604938272,41.4320987654321,0)"
					xlink:href="#T"/>
				<use
					transform="matrix(0.04938271604938272,0,0,0.04938271604938272,45.333333333333336,0)"
					xlink:href="#R"/>
				<use
					transform="matrix(0.04938271604938272,0,0,0.04938271604938272,55.20987654320988,0)"
					xlink:href="#Z"/>
				<use
					transform="matrix(0.04938271604938272,0,0,0.04938271604938272,60.14814814814815,0)"
					xlink:href="#U"/>
				<use
					transform="matrix(0.04938271604938272,0,0,0.04938271604938272,64.0493827160494,0)"
					xlink:href="#aA"/>
				<use
					transform="matrix(0.04938271604938272,0,0,0.04938271604938272,73.92592592592594,0)"
					xlink:href="#X"/></g>
			<path fill="#a9afb8"
				d="M199 0l-22-63H83L61 0H9l90-248h61L250 0h-51zm-33-102l-36-108c-10 38-24 72-36 108h72"
				id="aB"/>
			<path fill="#a9afb8"
				d="M275 0h-61l-44-196L126 0H64L0-248h53L97-49l45-199h58l43 199 44-199h52"
				id="aC"/>
			<path fill="#a9afb8"
				d="M169-182c-1-43-94-46-97-3 18 66 151 10 154 114 3 95-165 93-204 36-6-8-10-19-12-30l50-8c3 46 112 56 116 5-17-69-150-10-154-114-4-87 153-88 188-35 5 8 8 18 10 28"
				id="aD"/>
			<g id="t"><use
				transform="matrix(0.0728395061728395,0,0,0.0728395061728395,0,0)"
				xlink:href="#aB"/>
				<use
					transform="matrix(0.0728395061728395,0,0,0.0728395061728395,17.40864197530864,0)"
					xlink:href="#aC"/>
				<use
					transform="matrix(0.0728395061728395,0,0,0.0728395061728395,42.10123456790124,0)"
					xlink:href="#aD"/></g>
			<path fill="#a9afb8"
				d="M67-93c0 74 22 123 53 168H70C40 30 18-18 18-93s22-123 52-168h50c-32 44-53 94-53 168"
				id="aE"/>
			<path fill="#a9afb8"
				d="M182-182c0 78-84 86-111 141h115V0H12c-6-101 99-100 120-180 1-22-12-31-33-32-23 0-32 14-35 34l-49-3c5-45 32-70 84-70 51 0 83 22 83 69"
				id="aF"/>
			<path fill="#a9afb8"
				d="M101-251c68 0 84 54 84 127C185-50 166 4 99 4S15-52 14-124c-1-75 17-127 87-127zm-1 216c37-5 36-46 36-89s4-89-36-89c-39 0-36 45-36 89 0 43-3 85 36 89"
				id="aG"/>
			<path fill="#a9afb8"
				d="M23 0v-37h61v-169l-59 37v-38l62-41h46v211h57V0H23" id="aH"/>
			<path fill="#a9afb8"
				d="M99-251c69 0 84 53 88 123 5 99-61 162-144 118-15-8-21-25-26-45l46-6c4 31 50 33 63 7 7-15 12-36 12-60-9 18-29 28-54 28-48 0-72-32-72-82 0-55 31-83 87-83zm-1 128c24 0 37-16 37-39 0-27-10-51-37-51-25 0-35 19-35 45 0 25 10 45 35 45"
				id="aI"/>
			<path fill="#a9afb8"
				d="M102-93c0 74-22 123-52 168H0C30 29 54-18 53-93c0-74-22-123-53-168h50c30 45 52 94 52 168"
				id="aJ"/>
			<g id="u"><use
				transform="matrix(0.0728395061728395,0,0,0.0728395061728395,0,0)"
				xlink:href="#aE"/>
				<use
					transform="matrix(0.0728395061728395,0,0,0.0728395061728395,8.667901234567902,0)"
					xlink:href="#aF"/>
				<use
					transform="matrix(0.0728395061728395,0,0,0.0728395061728395,23.235802469135802,0)"
					xlink:href="#aG"/>
				<use
					transform="matrix(0.0728395061728395,0,0,0.0728395061728395,37.803703703703704,0)"
					xlink:href="#aH"/>
				<use
					transform="matrix(0.0728395061728395,0,0,0.0728395061728395,52.3716049382716,0)"
					xlink:href="#aI"/>
				<use
					transform="matrix(0.0728395061728395,0,0,0.0728395061728395,66.9395061728395,0)"
					xlink:href="#aJ"/></g>
			<path fill="#a9afb8"
				d="M114-157C55-157 80-60 75 0H25v-261h50l-1 109c12-26 28-41 61-42 86-1 58 113 63 194h-50c-7-57 23-157-34-157"
				id="aK"/>
			<path fill="#a9afb8"
				d="M110-194c64 0 96 36 96 99 0 64-35 99-97 99-61 0-95-36-95-99 0-62 34-99 96-99zm-1 164c35 0 45-28 45-65 0-40-10-65-43-65-34 0-45 26-45 65 0 36 10 65 43 65"
				id="aL"/>
			<path fill="#a9afb8"
				d="M135-150c-39-12-60 13-60 57V0H25l-1-190h47c2 13-1 29 3 40 6-28 27-53 61-41v41"
				id="aM"/>
			<path fill="#a9afb8" d="M25-224v-37h50v37H25zM25 0v-190h50V0H25"
				id="aN"/>
			<path fill="#a9afb8"
				d="M12 0v-35l95-120H19v-35h142v35L67-36h103V0H12" id="aO"/>
			<path fill="#a9afb8"
				d="M135-194c87-1 58 113 63 194h-50c-7-57 23-157-34-157-59 0-34 97-39 157H25l-1-190h47c2 12-1 28 3 38 12-26 28-41 61-42"
				id="aP"/>
			<path fill="#a9afb8"
				d="M115-3C79 11 28 4 28-45v-112H4v-33h27l15-45h31v45h36v33H77v99c-1 23 16 31 38 25v30"
				id="aQ"/>
			<path fill="#a9afb8"
				d="M133-34C117-15 103 5 69 4 32 3 11-16 11-54c-1-60 55-63 116-61 1-26-3-47-28-47-18 1-26 9-28 27l-52-2c7-38 36-58 82-57s74 22 75 68l1 82c-1 14 12 18 25 15v27c-30 8-71 5-69-32zm-48 3c29 0 43-24 42-57-32 0-66-3-65 30 0 17 8 27 23 27"
				id="aR"/>
			<path fill="#a9afb8" d="M25 0v-261h50V0H25" id="aS"/>
			<g id="v"><use
				transform="matrix(0.0728395061728395,0,0,0.0728395061728395,0,0)"
				xlink:href="#aK"/>
				<use
					transform="matrix(0.0728395061728395,0,0,0.0728395061728395,15.95185185185185,0)"
					xlink:href="#aL"/>
				<use
					transform="matrix(0.0728395061728395,0,0,0.0728395061728395,31.9037037037037,0)"
					xlink:href="#aM"/>
				<use
					transform="matrix(0.0728395061728395,0,0,0.0728395061728395,42.10123456790124,0)"
					xlink:href="#aN"/>
				<use
					transform="matrix(0.0728395061728395,0,0,0.0728395061728395,49.38518518518518,0)"
					xlink:href="#aO"/>
				<use
					transform="matrix(0.0728395061728395,0,0,0.0728395061728395,62.49629629629629,0)"
					xlink:href="#aL"/>
				<use
					transform="matrix(0.0728395061728395,0,0,0.0728395061728395,78.44814814814815,0)"
					xlink:href="#aP"/>
				<use
					transform="matrix(0.0728395061728395,0,0,0.0728395061728395,94.39999999999999,0)"
					xlink:href="#aQ"/>
				<use
					transform="matrix(0.0728395061728395,0,0,0.0728395061728395,103.06790123456791,0)"
					xlink:href="#aR"/>
				<use
					transform="matrix(0.0728395061728395,0,0,0.0728395061728395,117.63580246913581,0)"
					xlink:href="#aS"/></g>
			<path fill="#a9afb8"
				d="M121-226c-27-7-43 5-38 36h38v33H83V0H34v-157H6v-33h28c-9-59 32-81 87-68v32"
				id="aT"/>
			<path fill="#a9afb8"
				d="M220-157c-53 9-28 100-34 157h-49v-107c1-27-5-49-29-50C55-147 81-57 75 0H25l-1-190h47c2 12-1 28 3 38 10-53 101-56 108 0 13-22 24-43 59-42 82 1 51 116 57 194h-49v-107c-1-25-5-48-29-50"
				id="aU"/>
			<path fill="#a9afb8"
				d="M185-48c-13 30-37 53-82 52C43 2 14-33 14-96s30-98 90-98c62 0 83 45 84 108H66c0 31 8 55 39 56 18 0 30-7 34-22zm-45-69c5-46-57-63-70-21-2 6-4 13-4 21h74"
				id="aV"/>
			<path fill="#a9afb8"
				d="M231 0h-52l-39-155L100 0H48L-1-190h46L77-45c9-52 24-97 36-145h53l37 145 32-145h46"
				id="aW"/>
			<path fill="#a9afb8"
				d="M147 0L96-86 75-71V0H25v-261h50v150l67-79h53l-66 74L201 0h-54"
				id="aX"/>
			<g id="w"><use
				transform="matrix(0.0728395061728395,0,0,0.0728395061728395,0,0)"
				xlink:href="#aT"/>
				<use
					transform="matrix(0.0728395061728395,0,0,0.0728395061728395,8.667901234567902,0)"
					xlink:href="#aM"/>
				<use
					transform="matrix(0.0728395061728395,0,0,0.0728395061728395,18.86543209876543,0)"
					xlink:href="#aR"/>
				<use
					transform="matrix(0.0728395061728395,0,0,0.0728395061728395,33.43333333333333,0)"
					xlink:href="#aU"/>
				<use
					transform="matrix(0.0728395061728395,0,0,0.0728395061728395,56.74197530864197,0)"
					xlink:href="#aV"/>
				<use
					transform="matrix(0.0728395061728395,0,0,0.0728395061728395,71.30987654320987,0)"
					xlink:href="#aW"/>
				<use
					transform="matrix(0.0728395061728395,0,0,0.0728395061728395,91.70493827160493,0)"
					xlink:href="#aL"/>
				<use
					transform="matrix(0.0728395061728395,0,0,0.0728395061728395,107.65679012345679,0)"
					xlink:href="#aM"/>
				<use
					transform="matrix(0.0728395061728395,0,0,0.0728395061728395,117.85432098765432,0)"
					xlink:href="#aX"/></g>
			<path fill="#a9afb8"
				d="M233-177c-1 41-23 64-60 70L243 0h-38l-65-103H63V0H30v-248c88 3 205-21 203 71zM63-129c60-2 137 13 137-47 0-61-80-42-137-45v92"
				id="aY"/>
			<path fill="#a9afb8" d="M24-231v-30h32v30H24zM24 0v-190h32V0H24"
				id="aZ"/>
			<path fill="#a9afb8"
				d="M96-169c-40 0-48 33-48 73s9 75 48 75c24 0 41-14 43-38l32 2c-6 37-31 61-74 61-59 0-76-41-82-99-10-93 101-131 147-64 4 7 5 14 7 22l-32 3c-4-21-16-35-41-35"
				id="ba"/>
			<path fill="#a9afb8"
				d="M106-169C34-169 62-67 57 0H25v-261h32l-1 103c12-21 28-36 61-36 89 0 53 116 60 194h-32v-121c2-32-8-49-39-48"
				id="bb"/>
			<path fill="#a9afb8"
				d="M141-36C126-15 110 5 73 4 37 3 15-17 15-53c-1-64 63-63 125-63 3-35-9-54-41-54-24 1-41 7-42 31l-33-3c5-37 33-52 76-52 45 0 72 20 72 64v82c-1 20 7 32 28 27v20c-31 9-61-2-59-35zM48-53c0 20 12 33 32 33 41-3 63-29 60-74-43 2-92-5-92 41"
				id="bc"/>
			<path fill="#a9afb8"
				d="M114-163C36-179 61-72 57 0H25l-1-190h30c1 12-1 29 2 39 6-27 23-49 58-41v29"
				id="bd"/>
			<path fill="#a9afb8"
				d="M85-194c31 0 48 13 60 33l-1-100h32l1 261h-30c-2-10 0-23-3-31C134-8 116 4 85 4 32 4 16-35 15-94c0-66 23-100 70-100zm9 24c-40 0-46 34-46 75 0 40 6 74 45 74 42 0 51-32 51-76 0-42-9-74-50-73"
				id="be"/>
			<g id="x"><use
				transform="matrix(0.04248971193415638,0,0,0.04248971193415638,0,0)"
				xlink:href="#aY"/>
				<use
					transform="matrix(0.04248971193415638,0,0,0.04248971193415638,11.004835390946502,0)"
					xlink:href="#aZ"/>
				<use
					transform="matrix(0.04248971193415638,0,0,0.04248971193415638,14.361522633744855,0)"
					xlink:href="#ba"/>
				<use
					transform="matrix(0.04248971193415638,0,0,0.04248971193415638,22.009670781893004,0)"
					xlink:href="#bb"/>
				<use
					transform="matrix(0.04248971193415638,0,0,0.04248971193415638,30.50761316872428,0)"
					xlink:href="#bc"/>
				<use
					transform="matrix(0.04248971193415638,0,0,0.04248971193415638,39.00555555555555,0)"
					xlink:href="#bd"/>
				<use
					transform="matrix(0.04248971193415638,0,0,0.04248971193415638,44.06183127572016,0)"
					xlink:href="#be"/></g>
			<path fill="#a9afb8"
				d="M194 0L95-120 63-95V0H30v-248h33v124l119-124h40L117-140 236 0h-42"
				id="bf"/>
			<path fill="#a9afb8"
				d="M100-194c63 0 86 42 84 106H49c0 40 14 67 53 68 26 1 43-12 49-29l28 8c-11 28-37 45-77 45C44 4 14-33 15-96c1-61 26-98 85-98zm52 81c6-60-76-77-97-28-3 7-6 17-6 28h103"
				id="bg"/>
			<path fill="#a9afb8" d="M24 0v-261h32V0H24" id="bh"/>
			<path fill="#a9afb8"
				d="M100-194c62-1 85 37 85 99 1 63-27 99-86 99S16-35 15-95c0-66 28-99 85-99zM99-20c44 1 53-31 53-75 0-43-8-75-51-75s-53 32-53 75 10 74 51 75"
				id="bi"/>
			<path fill="#a9afb8"
				d="M177-190C167-65 218 103 67 71c-23-6-38-20-44-43l32-5c15 47 100 32 89-28v-30C133-14 115 1 83 1 29 1 15-40 15-95c0-56 16-97 71-98 29-1 48 16 59 35 1-10 0-23 2-32h30zM94-22c36 0 50-32 50-73 0-42-14-75-50-75-39 0-46 34-46 75s6 73 46 73"
				id="bj"/>
			<g id="y"><use
				transform="matrix(0.04248971193415638,0,0,0.04248971193415638,0,0)"
				xlink:href="#bf"/>
				<use
					transform="matrix(0.04248971193415638,0,0,0.04248971193415638,10.19753086419753,0)"
					xlink:href="#bg"/>
				<use
					transform="matrix(0.04248971193415638,0,0,0.04248971193415638,18.695473251028805,0)"
					xlink:href="#bh"/>
				<use
					transform="matrix(0.04248971193415638,0,0,0.04248971193415638,22.05216049382716,0)"
					xlink:href="#bh"/>
				<use
					transform="matrix(0.04248971193415638,0,0,0.04248971193415638,25.408847736625514,0)"
					xlink:href="#bi"/>
				<use
					transform="matrix(0.04248971193415638,0,0,0.04248971193415638,33.90679012345679,0)"
					xlink:href="#bj"/>
				<use
					transform="matrix(0.04248971193415638,0,0,0.04248971193415638,42.40473251028806,0)"
					xlink:href="#bj"/></g>
			<path fill="#a9afb8" d="M32 76v-337h29V76H32" id="bk"/>
			<use
				transform="matrix(0.04248971193415638,0,0,0.04248971193415638,0,0)"
				xlink:href="#bk" id="z"/>
			<path fill="#a9afb8"
				d="M205 0l-28-72H64L36 0H1l101-248h38L239 0h-34zm-38-99l-47-123c-12 45-31 82-46 123h93"
				id="bl"/>
			<path fill="#a9afb8"
				d="M115-194c55 1 70 41 70 98S169 2 115 4C84 4 66-9 55-30l1 105H24l-1-265h31l2 30c10-21 28-34 59-34zm-8 174c40 0 45-34 45-75s-6-73-45-74c-42 0-51 32-51 76 0 43 10 73 51 73"
				id="bm"/>
			<g id="A"><use
				transform="matrix(0.04248971193415638,0,0,0.04248971193415638,0,0)"
				xlink:href="#bl"/>
				<use
					transform="matrix(0.04248971193415638,0,0,0.04248971193415638,10.19753086419753,0)"
					xlink:href="#bm"/>
				<use
					transform="matrix(0.04248971193415638,0,0,0.04248971193415638,18.695473251028805,0)"
					xlink:href="#bd"/>
				<use
					transform="matrix(0.04248971193415638,0,0,0.04248971193415638,23.751748971193415,0)"
					xlink:href="#aZ"/>
				<use
					transform="matrix(0.04248971193415638,0,0,0.04248971193415638,27.10843621399177,0)"
					xlink:href="#bh"/></g>
			<path fill="#a9afb8"
				d="M64 0c3-98 48-159 88-221H18v-27h164v26C143-157 98-101 97 0H64"
				id="bn"/>
			<path fill="#a9afb8"
				d="M68-38c1 34 0 65-14 84H32c9-13 17-26 17-46H33v-38h35" id="bo"/>
			<g id="B"><use
				transform="matrix(0.04248971193415638,0,0,0.04248971193415638,0,0)"
				xlink:href="#bn"/>
				<use
					transform="matrix(0.04248971193415638,0,0,0.04248971193415638,8.497942386831275,0)"
					xlink:href="#bo"/></g>
			<path fill="#a9afb8"
				d="M101-251c82-7 93 87 43 132L82-64C71-53 59-42 53-27h129V0H18c2-99 128-94 128-182 0-28-16-43-45-43s-46 15-49 41l-32-3c6-41 34-60 81-64"
				id="bp"/>
			<path fill="#a9afb8"
				d="M101-251c68 0 85 55 85 127S166 4 100 4C33 4 14-52 14-124c0-73 17-127 87-127zm-1 229c47 0 54-49 54-102s-4-102-53-102c-51 0-55 48-55 102 0 53 5 102 54 102"
				id="bq"/>
			<g id="C"><use
				transform="matrix(0.04248971193415638,0,0,0.04248971193415638,0,0)"
				xlink:href="#bp"/>
				<use
					transform="matrix(0.04248971193415638,0,0,0.04248971193415638,8.497942386831275,0)"
					xlink:href="#bq"/>
				<use
					transform="matrix(0.04248971193415638,0,0,0.04248971193415638,16.99588477366255,0)"
					xlink:href="#bp"/>
				<use
					transform="matrix(0.04248971193415638,0,0,0.04248971193415638,25.493827160493822,0)"
					xlink:href="#bp"/></g>
		</defs>
	</g>
</svg>